<svg xmlns="http://www.w3.org/2000/svg" width="119.294" height="30" viewBox="0 0 119.294 30"><defs><style>.a{fill:#fff;}</style></defs><g transform="translate(0 0)"><path class="a" d="M1159.186,386.663c.04-.086.039-.189.076-.276s.148-.143.183-.23.009-.2.043-.288.054-.181.085-.269.119-.159.148-.249-.044-.212-.017-.3.17-.147.2-.237.012-.193.035-.284.111-.168.132-.26-.028-.2-.009-.293.036-.185.054-.278-.042-.2-.026-.291.072-.178.086-.272.083-.179.1-.272.03-.187.041-.281,0-.19.007-.284.031-.187.037-.281.019-.188.024-.282-.09-.192-.087-.286.106-.186.108-.28.065-.19.064-.284.005-.191,0-.285-.136-.185-.14-.279.028-.19.023-.284.018-.191.011-.284.035-.195.026-.289-.091-.182-.1-.276-.116-.176-.129-.269.057-.2.043-.292-.03-.187-.046-.28.039-.2.021-.293-.179-.157-.2-.249,0-.192-.026-.283-.054-.181-.078-.271-.018-.191-.043-.281.032-.208,0-.3-.137-.156-.166-.244.018-.208-.014-.295-.069-.179-.1-.265-.076-.176-.113-.261-.17-.132-.21-.215-.006-.21-.049-.291-.162-.128-.209-.207-.024-.21-.074-.287-.2-.091-.259-.164-.032-.219-.092-.287-.138-.139-.2-.2a2.04,2.04,0,0,0-.243-.15c-.08-.057-.187-.049-.267-.086s-.141-.134-.237-.159a2.564,2.564,0,0,0-.284,0,2.663,2.663,0,0,0-.276-.045c-.09,0-.188-.088-.285-.083s-.189.018-.285.03-.179.074-.275.09-.2-.018-.29,0-.158.144-.251.168-.183.035-.275.062-.162.1-.253.133-.193.011-.283.044-.172.072-.261.107-.217-.034-.3,0-.17.085-.257.124-.106.218-.192.259-.166.083-.251.126-.169.079-.253.123-.216,0-.3.042-.135.14-.217.188-.19.046-.271.1-.106.184-.186.235-.221,0-.3.056-.177.075-.255.128-.108.175-.185.23-.115.16-.191.216-.238,0-.313.056-.106.171-.18.23-.165.1-.238.157-.07.208-.142.27-.139.126-.209.189-.141.123-.21.188-.157.107-.225.173-.2.066-.266.133-.033.23-.1.3-.2.065-.269.135-.166.105-.228.176-.1.167-.157.24-.048.205-.108.279-.138.129-.2.2-.113.15-.17.226-.113.15-.168.227-.218.079-.271.157-.067.184-.118.263-.133.141-.183.221-.028.2-.076.286-.038.195-.084.278-.2.106-.246.19-.115.155-.157.241-.057.184-.1.27-.042.184-.08.27-.064.174-.1.26-.115.152-.151.239.01.2-.024.291-.107.157-.141.244-.144.144-.177.232.084.229.053.317-.165.138-.2.227-.11.159-.14.248-.041.183-.071.272.087.223.059.312-.16.144-.188.233-.036.183-.063.273.015.2-.011.288-.13.156-.155.246-.062.177-.086.267-.1.167-.121.258.088.215.065.306-.077.173-.1.264-.08.173-.1.264.051.2.03.294-.19.149-.21.241.12.217.1.308-.05.18-.068.272-.129.165-.146.257-.006.189-.023.281-.128.168-.144.26.092.206.077.3-.144.167-.158.259-.01.188-.024.281.078.2.065.293-.128.141-.14.233c-.079.112,0,.173-.1.271s-.186.01-.282.108-.046.147-.141.245-.092.1-.186.2-.1.094-.195.193-.08.114-.176.213-.132.063-.228.161-.071.124-.167.223-.13.067-.226.166-.009.184-.106.284-.139.058-.261.123c0-.1.1-.172.1-.266s-.154-.2-.153-.293.14-.193.14-.287,0-.2,0-.29-.02-.2-.024-.29-.068-.193-.076-.286-.066-.189-.078-.281.017-.2,0-.289-.03-.2-.054-.282a2.856,2.856,0,0,0-.043-.294c-.045-.1-.163-.139-.22-.2-.071-.078-.142-.062-.233-.076s-.16-.073-.256-.049-.129.115-.216.165-.215-.005-.291.058a2.544,2.544,0,0,0-.194.2c-.06.064-.054.188-.115.264s-.2.076-.254.155-.106.151-.155.233-.1.155-.147.239-.051.181-.092.267.01.2-.027.292-.17.128-.2.216-.116.156-.147.245.079.22.051.31-.04.178-.065.269-.176.145-.2.237.015.193,0,.284-.033.182-.049.274.051.195.037.288-.042.178-.053.271-.04.181-.049.275-.148.175-.154.269.041.191.037.285.047.188.046.282.009.186.011.28,0,.186,0,.28.013.186.019.279.064.182.072.275-.013.188,0,.281-.036.193-.024.285-.006.191.008.283.1.175.111.267-.016.194,0,.285.015.189.034.28,0,.193.024.284.149.158.172.247.053.18.078.268.061.177.088.265.062.177.091.264-.01.2.021.29.069.178.1.262.1.164.138.245.089.168.131.247.038.2.085.278a1.957,1.957,0,0,0,.2.206.921.921,0,0,0,.228.159c.09.062.164.167.247.156s.077-.151.14-.257c.04-.067.193-.1.23-.2.028-.078.043-.176.07-.272s-.022-.191,0-.286.115-.16.134-.255-.106-.2-.089-.3.053-.175.068-.268.089-.171.1-.265.01-.183.023-.277.028-.181.041-.274.1-.171.116-.263-.112-.2-.1-.293.023-.183.034-.276.069-.177.08-.27.035-.181.045-.274.016-.215.027-.309c.119-.08.175.035.31-.012s.133-.054.268-.1.118-.1.253-.146.138-.039.273-.087.162.027.3-.02.13-.064.266-.112.1-.144.239-.192.177.067.313.02c.108-.038.194-.044.212.069.015.1.069.183.086.276s-.041.206-.021.3,0,.2.025.291.07.184.1.274.191.14.222.229.016.206.051.293c-.027.09-.005.2-.032.291s-.117.16-.143.248-.1.165-.124.254.032.2.008.291-.15.152-.173.241,0,.192-.027.28-.036.183-.058.272-.038.182-.059.271-.09.17-.11.258-.019.186-.038.275.039.2.022.285-.1.169-.119.258-.082.176-.1.265.062.2.052.286-.106.178-.113.267.069.192.067.279.018.186.023.273a1.991,1.991,0,0,0,.074.262c.016.1-.061.2-.032.284s.135.132.188.2.066.2.148.24a.7.7,0,0,0,.286.091c.086,0,.171-.1.265-.134a1.482,1.482,0,0,0,.249-.117c.073-.044.183-.049.261-.108s.147-.109.219-.173.085-.174.153-.241.169-.088.234-.157.035-.212.1-.283.139-.118.2-.19.168-.1.227-.17.052-.19.11-.264.185-.088.241-.163.154-.114.21-.19.106-.151.161-.227.088-.162.141-.238.121-.139.174-.216.041-.2.094-.273.092-.159.144-.236.073-.173.124-.251.168-.109.22-.187.128-.106.18-.185c.089-.029.131-.115.222-.15s.19-.039.279-.078.129-.173.217-.216.195-.033.281-.078.2-.031.286-.079.177-.079.26-.129c.1-.06.217-.11.258,0,.051.134.041.138.092.272s-.025.163.026.3.147.1.2.232-.071.18-.02.313.178.087.229.221-.026.164.025.3.085.122.136.257a.769.769,0,0,1,.076.276c-.064.068-.069.177-.132.244s-.163.1-.226.169-.18.087-.243.154-.13.135-.192.2-.029.227-.091.294-.2.066-.266.133-.059.2-.12.265-.149.117-.209.185-.115.148-.174.217-.128.138-.185.207-.137.132-.192.2-.054.2-.106.266-.2.093-.247.164-.022.212-.064.284c-.053.092-.145.143-.17.216-.04.116-.106.232-.067.292a.487.487,0,0,0,.265.163,1.4,1.4,0,0,0,.289-.015,1.872,1.872,0,0,0,.285.032c.087-.011.171-.085.268-.106s.157-.116.251-.141.182-.022.274-.051.186-.021.276-.054.157-.1.246-.139.189-.025.276-.062.143-.134.229-.173.24.077.326.036.1-.211.188-.254.2-.026.278-.07.131-.147.213-.193.164-.086.246-.133.161-.092.241-.141.164-.089.243-.14.175-.074.253-.126.12-.154.2-.208.208-.031.284-.086.1-.185.169-.242.133-.132.2-.191.163-.1.234-.157.113-.152.182-.215.159-.1.226-.166.17-.092.235-.157.072-.188.134-.255.253-.022.314-.091.053-.2.112-.273.186-.091.243-.163.023-.219.078-.292.154-.119.207-.194.067-.181.117-.258.132-.138.18-.216.141-.136.185-.216.037-.193.078-.275.018-.2.056-.28.182-.126.216-.21-.03-.212,0-.3.171-.145.195-.231-.079-.213-.062-.3.178-.165.188-.253a2.386,2.386,0,0,0,0-.287c0-.1-.13-.18-.146-.265s.015-.2-.022-.275a.633.633,0,0,0-.183-.2.378.378,0,0,0-.248-.108c-.084,0-.2-.062-.3-.032-.084.024-.14.155-.235.2s-.2.015-.29.065-.093.2-.178.258-.24-.02-.321.038-.066.228-.146.288-.251-.014-.328.048-.108.17-.184.234-.137.133-.212.2-.147.123-.221.189-.1.124-.177.191a.581.581,0,0,1-.039-.269c.014-.136-.025-.14-.011-.277s.059-.132.073-.268.1-.128.114-.265-.014-.139,0-.276,0-.137.019-.274-.036-.141-.022-.278-.011-.14,0-.277-.01-.14,0-.277.133-.126.146-.263-.035-.142,0-.275c.063-.068.155-.1.217-.168s.057-.2.12-.268.105-.154.167-.225.153-.113.214-.184.147-.12.207-.191.042-.207.1-.279.114-.147.173-.219.136-.129.194-.2.178-.1.236-.17.044-.2.1-.276.176-.1.233-.174.087-.168.143-.243.056-.191.112-.266.192-.091.247-.166.026-.211.08-.287.239-.061.292-.137.088-.167.141-.244,0-.229.047-.306.24-.065.291-.143.042-.2.093-.274.069-.178.119-.256.079-.17.129-.249.151-.126.2-.205.076-.174.124-.254.038-.195.084-.275.225-.087.271-.168.054-.184.1-.265.1-.158.144-.239.123-.148.166-.23.066-.177.107-.259,0-.208.037-.29S1159.147,386.746,1159.186,386.663Zm-5.788-7.576a1.922,1.922,0,0,1,.1-.264c.052-.077.171-.1.233-.166s.085-.177.158-.233a1.819,1.819,0,0,1,.227-.165c.081-.045.19-.029.276-.06s.151-.16.241-.178.2.091.291.088a1.743,1.743,0,0,1,.274-.028c.091.011.163.093.252.119s.195-.012.28.027a1.8,1.8,0,0,1,.243.135c.077.052.2.054.27.116a1.95,1.95,0,0,1,.163.239c.057.073.062.183.107.263a1.753,1.753,0,0,1,.107.252,1.779,1.779,0,0,1,.094.259,1.734,1.734,0,0,1,.017.275,1.716,1.716,0,0,1-.018.273c-.011.091.067.206.041.3s-.153.143-.193.228-.136.127-.187.2a1.567,1.567,0,0,1-.169.2c-.063.068-.041.224-.113.28a1.862,1.862,0,0,1-.254.124,1.792,1.792,0,0,1-.263.086,1.764,1.764,0,0,1-.272.023c-.09.017-.167.1-.26.1s-.195.093-.287.082-.172-.113-.261-.139a1.791,1.791,0,0,1-.26-.1c-.085-.04-.125-.147-.2-.2s-.24,0-.307-.06a1.929,1.929,0,0,1-.166-.235.935.935,0,0,1-.252-.5c-.032-.086.03-.2.012-.286s-.11-.168-.113-.26.085-.176.1-.268a1.612,1.612,0,0,1,.051-.26C1153.381,379.273,1153.358,379.172,1153.4,379.087Zm-2.426,5.04a1.975,1.975,0,0,1,.1-.273c.054-.08.175-.105.24-.175s.091-.182.166-.241a1.877,1.877,0,0,1,.236-.171,1.934,1.934,0,0,1,.286-.065c.09-.033.158-.163.252-.181s.206.09.3.087a1.814,1.814,0,0,1,.285-.028c.094.011.17.094.263.121s.2-.01.29.031a1.882,1.882,0,0,1,.252.14c.08.054.209.058.279.122a2,2,0,0,1,.17.247,1.943,1.943,0,0,1,.113.272,1.8,1.8,0,0,1,.112.262,1.861,1.861,0,0,1,.1.269,2.2,2.2,0,0,1,0,.57c-.012.094.066.213.039.306s-.155.15-.2.238-.139.134-.192.212a1.638,1.638,0,0,1-.176.21c-.066.07-.045.229-.12.288a1.942,1.942,0,0,1-.263.13,1.866,1.866,0,0,1-.272.091,1.846,1.846,0,0,1-.283.025c-.094.018-.175.1-.271.1s-.2.093-.3.081-.179-.114-.272-.141a1.857,1.857,0,0,1-.27-.1c-.088-.041-.132-.15-.21-.2s-.246,0-.315-.066a1.489,1.489,0,0,1-.436-.763c-.033-.09.028-.2.01-.3s-.111-.175-.115-.271.085-.183.1-.278a1.664,1.664,0,0,1,.053-.271A1.8,1.8,0,0,1,1150.972,384.127Zm-2.213,5.036a1.892,1.892,0,0,1,.095-.256c.051-.075.167-.1.228-.16s.082-.173.152-.228a1.769,1.769,0,0,1,.22-.161c.078-.043.185-.026.269-.057s.146-.159.233-.176.193.092.283.089a1.7,1.7,0,0,1,.266-.029c.088.011.157.092.244.117s.189-.014.272.025a1.745,1.745,0,0,1,.235.13c.075.05.2.05.264.111a1.865,1.865,0,0,1,.157.233c.055.071.059.179.1.256a1.679,1.679,0,0,1,.1.244,1.728,1.728,0,0,1,.092.251,1.688,1.688,0,0,1,.016.267,1.64,1.64,0,0,1-.018.265c-.011.088.068.2.043.287s-.151.138-.19.22-.133.122-.183.2a1.535,1.535,0,0,1-.163.195c-.061.066-.036.22-.107.275a1.783,1.783,0,0,1-.247.119,1.121,1.121,0,0,1-.519.1c-.087.017-.162.1-.251.1s-.189.093-.278.082-.166-.112-.253-.137a1.733,1.733,0,0,1-.252-.094c-.082-.038-.12-.144-.193-.193s-.235.006-.3-.055a1.871,1.871,0,0,1-.16-.229.9.9,0,0,1-.244-.486c-.031-.084.032-.19.015-.278s-.109-.163-.113-.252.085-.17.1-.259a1.55,1.55,0,0,1,.049-.252C1148.745,389.344,1148.72,389.246,1148.758,389.163Z" transform="translate(-1139.343 -373.435)"/></g><g transform="translate(25.661 13.058)"><path class="a" d="M1736,460.735a.275.275,0,0,1,.135-.335c.084-.028.212.046.294.009s.126-.154.2-.2.158-.083.232-.133.123-.132.194-.187.168-.077.234-.138.109-.143.17-.209.117-.133.173-.2.088-.154.139-.228.088-.151.133-.229.157-.117.2-.2.085-.16.118-.244-.047-.2-.02-.29.16-.14.18-.228-.033-.188-.02-.277.042-.173.048-.263-.046-.176-.047-.267.14-.188.134-.277-.019-.186-.031-.274-.051-.18-.069-.268-.132-.155-.157-.241.016-.2-.015-.279-.135-.139-.172-.221.022-.215-.022-.293-.144-.127-.195-.2-.149-.112-.205-.183-.081-.165-.143-.231-.165-.085-.232-.147-.057-.209-.128-.265-.182-.058-.257-.11-.14-.114-.218-.16-.176-.05-.257-.092-.131-.139-.214-.177-.2.008-.281-.024-.165-.061-.252-.089-.172-.041-.26-.066-.172-.04-.261-.061-.169-.054-.259-.071-.176-.021-.266-.034-.161-.144-.251-.154-.19.1-.281.1-.175-.055-.266-.059-.178.007-.269.005-.18-.045-.271-.044-.182-.032-.273-.029a2.8,2.8,0,0,1-.277.064c-.084,0-.177.028-.279.031s-.182.025-.279.029-.187-.071-.283-.067-.187-.03-.282-.026-.185.109-.278.112-.194-.083-.286-.079-.192-.005-.282,0-.189.134-.275.138-.222-.078-.282-.015-.016.188-.016.281c0,.133-.1.133-.1.266s.106.134.105.267,0,.133,0,.267-.133.133-.133.267.07.134.069.268-.02.134-.021.268-.049.134-.05.267.154.134.153.268.014.134.014.267-.005.134-.006.267-.012.133-.013.267-.063.133-.064.267-.008.134-.009.267.052.134.051.268-.11.134-.111.267.025.134.024.269.106.134.106.268-.132.133-.132.267.13.134.129.268-.148.133-.148.267.109.134.108.268-.037.134-.037.268.085.135.084.269-.144.133-.145.267.13.134.129.268-.041.134-.041.268-.045.134-.046.268-.025.133-.025.266-.038.133-.039.267.114.134.113.268,0,.134,0,.269.016.134.016.268-.064.134-.065.267-.056.134-.057.268.146.135.145.27-.06.134-.061.268-.053.134-.054.268.039.135.039.27-.023.134-.023.269.048.135.048.269.029.134.029.268-.122.134-.122.269.127.136.126.271,0,.135,0,.271-.078.135-.079.271a.178.178,0,0,0,.184.174c.136,0,.137.005.273,0s.138.024.275.02.138.042.275.038.137-.005.274-.008.134-.1.271-.105.136-.041.273-.044.137-.011.275-.014.14.1.278.1.136-.085.274-.088c.1,0,.193-.041.192-.138,0-.13-.1-.128-.107-.258s.074-.132.071-.262-.025-.13-.028-.261-.012-.131-.015-.262.108-.133.105-.264-.081-.129-.084-.26.01-.131.008-.262.039-.132.036-.264-.091-.129-.094-.26,0-.131,0-.262.085-.134.083-.265-.021-.131-.024-.262.031-.132.028-.263.009-.131.007-.262-.093-.13-.1-.262-.079-.13-.082-.262.124-.135.121-.267a.666.666,0,0,1,.013-.25c.064,0,.083.007.156,0,.127-.007.288,0,.356.107s.037.133.108.245.089.1.16.212.078.107.149.219.017.146.087.258.12.081.191.193-.015.167.056.28.066.117.137.23.2.029.274.142-.026.174.045.286.152.061.224.174-.017.169.054.282.066.116.138.229.092.1.164.213.146.066.217.18.035.136.107.249.032.138.1.251.115.085.187.2.079.109.151.222-.021.172.05.286.1.1.173.209.067.117.139.231c.033.052.131.14.193.138.129,0,.126-.1.255-.108s.129,0,.258,0,.13.048.259.045.127-.074.256-.078.128-.032.257-.035.133.13.262.127.129-.031.258-.035l.26,0c.13,0,.127-.1.257-.107a.242.242,0,0,0,.187-.078.26.26,0,0,0,.106-.177c.01-.078.082-.183.032-.258-.072-.108-.115-.08-.186-.188s-.014-.146-.086-.254-.07-.109-.141-.217-.173-.041-.245-.149-.032-.135-.1-.243-.074-.108-.146-.217-.1-.093-.17-.2-.022-.142-.094-.251l-.143-.218c-.072-.109-.135-.067-.208-.176s-.056-.12-.129-.229-.044-.128-.116-.237-.073-.109-.145-.218-.139-.066-.211-.175-.012-.149-.084-.259-.113-.082-.186-.191-.095-.094-.167-.2-.064-.115-.137-.225.027-.176-.045-.286-.1-.092-.192-.188S1736.076,460.845,1736,460.735Zm-1.327-2.042c-.089.019-.185,0-.269.008s-.186-.091-.272-.084-.165.1-.253.1-.171,0-.26,0-.172.037-.262.035-.17-.051-.261-.052a.356.356,0,0,1-.248-.078.37.37,0,0,1-.109-.247c0-.128-.027-.128-.03-.256s-.013-.128-.016-.257.077-.131.074-.259.007-.129,0-.258-.119-.126-.122-.254.112-.131.109-.259-.074-.127-.077-.256.017-.13.014-.259-.058-.128-.061-.258.141-.133.139-.262a.221.221,0,0,1,.07-.194c.06-.065.091-.107.186-.111s.178-.1.268-.1.181.071.27.073.183-.071.273-.066.172.123.263.13.183-.045.273-.035a2.355,2.355,0,0,1,.285-.01,2.135,2.135,0,0,1,.255.124,2.04,2.04,0,0,1,.28.069c.08.047.089.2.159.256s.178.078.236.151a1.374,1.374,0,0,1,.134.243,1.429,1.429,0,0,1,.141.246c.023.085-.025.189-.016.285s.1.178.091.262a1.812,1.812,0,0,1-.033.268,1.446,1.446,0,0,1-.175.513,1.8,1.8,0,0,1-.167.215,1.842,1.842,0,0,1-.178.2c-.066.06-.21.02-.281.066s-.1.2-.173.232A1.479,1.479,0,0,1,1734.676,458.693Z" transform="translate(-1657.574 -452.984)"/><path class="a" d="M1294.256,453.088c.139,0,.14.05.279.047s.138-.047.277-.05.141.1.28.1.137-.156.276-.158l.279-.007c.139,0,.142.125.281.122s.137-.109.276-.111.14.06.279.057.139-.015.278-.017.138-.06.277-.062.141.1.281.1.137-.137.277-.14.14.014.279.011l.279-.006c.139,0,.139-.008.279-.011s.14.026.28.023.142.123.282.121.137-.1.275-.105.139-.048.278-.051.141.056.28.054.138-.065.277-.067.141.078.28.076.138-.094.277-.1.14.021.28.018.141.067.281.065.14.034.28.031.14-.031.28-.034.14.009.28.007.138-.122.277-.125.14.046.28.044.142.115.282.112.14-.039.28-.041.14-.064.281-.066.142.058.283.056c.1,0,.213-.035.277.029a.452.452,0,0,1,.14.277c0,.135.012.135.012.27s0,.135,0,.27-.106.135-.106.27.031.135.031.27.065.135.065.269-.086.135-.086.271.108.136.108.271-.052.136-.052.272-.042.136-.042.272a.324.324,0,0,1-.107.237.316.316,0,0,1-.238.094c-.142,0-.143.058-.285.056s-.142,0-.285,0-.142-.057-.285-.059-.144.079-.286.077-.143.011-.285.01-.142-.031-.284-.033-.142-.115-.284-.117-.145.137-.289.135-.142-.1-.286-.1-.143-.066-.286-.068a.465.465,0,0,0-.27.155.385.385,0,0,0-.084.266c0,.136.073.137.072.273s-.1.135-.106.272-.054.136-.056.273.09.138.089.274-.019.136-.02.272-.08.135-.082.272.077.137.075.273-.083.135-.084.272.136.138.134.275-.106.136-.108.272.045.137.043.273,0,.137,0,.273-.084.136-.085.272.1.138.1.275.039.137.037.274-.025.136-.026.271-.048.136-.049.272-.05.136-.051.273.113.138.112.274-.014.136-.016.272.03.137.029.273-.017.137-.018.274-.034.136-.036.273.059.137.057.274-.073.136-.075.274.01.137.008.274-.027.137-.029.273-.06.136-.062.273.1.139.094.276-.041.137-.043.275.059.138.057.277-.025.138-.026.276a.426.426,0,0,1-.1.266.449.449,0,0,1-.261.134c-.135.007-.137-.037-.272-.031s-.133.037-.268.044-.137-.056-.272-.049-.132.048-.266.055-.133.047-.268.053-.14-.094-.275-.087-.133.065-.268.072-.134.038-.269.045a.5.5,0,0,1-.321-.085.531.531,0,0,1-.131-.316c0-.136.063-.136.063-.271s.035-.136.035-.272.013-.136.013-.272.009-.136.009-.272,0-.136,0-.272-.121-.136-.121-.271.072-.136.072-.272.043-.136.043-.272-.067-.136-.067-.272.115-.136.115-.273-.041-.136-.041-.272-.118-.136-.118-.272.019-.136.019-.272.06-.136.06-.273.026-.136.026-.272-.087-.135-.087-.271.129-.136.129-.272-.108-.136-.108-.273-.02-.136-.02-.272,0-.136,0-.271-.008-.136-.008-.272-.006-.137-.006-.273,0-.136,0-.272.154-.136.154-.272-.113-.137-.113-.273-.039-.136-.039-.273.009-.136.009-.273.026-.136.026-.272.058-.137.058-.274-.079-.137-.079-.274.121-.137.121-.275-.092-.137-.092-.275a.332.332,0,0,0-.071-.249.338.338,0,0,0-.25-.083c-.135,0-.134.068-.269.068s-.135-.081-.269-.08-.134-.013-.269-.012-.134.074-.269.075-.135-.07-.269-.069-.134.044-.268.045-.135-.114-.269-.114-.134.1-.269.1-.135-.071-.27-.071-.135.017-.271.017-.135.013-.271.013a.32.32,0,0,1-.242-.084c-.064-.063-.194-.145-.194-.242,0-.131.076-.131.076-.262s-.013-.131-.013-.262.066-.131.066-.262-.011-.131-.011-.262-.031-.131-.031-.261-.022-.131-.022-.263.094-.132.094-.263-.012-.132-.012-.264-.016-.132-.016-.264c0-.1-.038-.212.024-.275A.424.424,0,0,1,1294.256,453.088Z" transform="translate(-1293.828 -452.743)"/><path class="a" d="M1372.261,453.253c.135,0,.137.14.273.138s.134-.141.27-.143.137.154.272.152.135-.063.27-.065.135-.015.271-.016.136,0,.271,0,.135.029.269.028.134-.066.269-.068.135-.039.27-.041.136.042.272.04.136.081.272.079.135-.029.27-.031.135-.01.271-.012.135-.049.271-.051.135-.025.271-.027.135-.025.271-.026.138.112.274.11.135-.028.271-.03.136.041.272.039.134-.088.27-.09.136-.024.273-.026.137.038.273.036.137.03.274.029.135-.1.272-.1a.5.5,0,0,1,.314.127.488.488,0,0,1,.094.319c-.008.134-.083.13-.092.264s.078.14.069.275-.083.13-.091.264.022.136.014.271.057.138.048.272-.1.129-.113.264.089.141.08.276-.16.126-.168.262.013.137.005.272c-.006.092.054.237-.009.3s-.2-.037-.3-.037c-.134,0-.134.069-.267.069s-.134.037-.267.037-.134.023-.268.023-.134-.059-.269-.059-.134.024-.268.024-.134.064-.268.064-.135-.144-.269-.144-.134.041-.269.041-.134-.012-.268-.011-.134-.037-.268-.037-.135.022-.269.022-.135.091-.269.091-.135.027-.271.028-.135-.011-.27-.011c-.1,0-.165.019-.167.114,0,.148-.009.148-.011.3s-.048.147-.051.294.051.149.048.3.071.15.068.3-.116.147-.119.3.024.149.022.3c0,.1.083.248.181.248.14,0,.14-.023.28-.023s.14-.034.28-.034.14-.1.281-.1.14.023.281.023.141.141.281.141.141-.07.282-.07.141.02.281.02.141-.051.281-.051.14.077.28.077.141-.079.282-.079.141.032.283.032.141-.029.283-.029.141-.008.283-.008c.1,0,.151.1.214.167s.177.12.175.218c0,.132.04.133.037.264s-.091.129-.094.261.033.132.03.263-.012.132-.016.264-.066.131-.069.263-.048.132-.051.264.056.134.053.266c0,.095-.068.126-.13.187s-.1.115-.19.115c-.133,0-.133.048-.266.048s-.133-.057-.266-.057-.133.047-.266.047-.134.025-.267.025-.133-.1-.267-.1-.134.081-.267.081-.134.054-.267.054-.134-.045-.267-.045-.133.01-.267.01-.133.018-.266.018-.134-.113-.268-.113-.134.025-.268.025-.134.072-.269.072-.134-.015-.269-.015c-.094,0-.1.065-.108.158,0,.127.014.128.009.255s-.124.122-.129.25.095.131.09.259-.03.127-.035.255-.117.124-.122.252.051.13.047.259c0,.1.088.114.184.118.139.006.136.074.275.08s.137.045.276.051.137.039.276.046.141-.046.28-.04.139.023.278.029.139.015.278.021.138.023.277.029.145-.112.285-.106.14,0,.279.005.134.131.273.138.14-.006.279,0,.143-.068.283-.062.139.017.279.023.142-.028.282-.021.135.139.275.145c.091,0,.189-.058.249,0a.385.385,0,0,1,.106.244c.006.146-.05.148-.044.294s.076.143.082.289.061.143.067.289-.153.153-.147.3.12.142.126.288-.086.151-.08.3.12.142.126.289c0,.1-.108.18-.172.247s-.14.179-.239.179c-.139,0-.139-.114-.278-.114s-.139.06-.278.06h-.277c-.139,0-.139-.031-.278-.031s-.139.006-.278.006-.139.042-.278.042-.139,0-.278,0-.139-.016-.277-.016-.138-.056-.277-.056-.139.039-.278.039-.139.046-.277.046-.138-.112-.277-.112-.139.072-.277.072-.14-.034-.279-.035-.139.033-.278.033-.139.034-.278.034-.14-.02-.279-.02-.139-.04-.279-.04-.139.029-.279.029-.139-.055-.278-.055-.14.061-.279.061-.14.064-.28.064-.14-.042-.281-.042-.14-.071-.281-.071a.306.306,0,0,1-.237-.07.364.364,0,0,1-.137-.237c0-.139-.028-.139-.028-.278s.137-.14.136-.28-.1-.139-.105-.279.076-.14.075-.279-.1-.139-.1-.278.08-.139.08-.278.023-.139.023-.278,0-.139,0-.278-.112-.138-.113-.277,0-.139,0-.278-.024-.139-.025-.278.137-.14.136-.28-.043-.14-.043-.279,0-.14,0-.279-.095-.139-.1-.278-.011-.139-.011-.278.111-.14.111-.279.022-.14.021-.279.011-.14.01-.279-.059-.139-.059-.279-.019-.139-.02-.279-.067-.139-.067-.279.109-.14.108-.28-.112-.139-.113-.279.129-.14.129-.28-.038-.139-.039-.278-.027-.139-.027-.279.049-.14.048-.28,0-.139,0-.279,0-.139,0-.278-.036-.139-.036-.279.071-.14.07-.281-.145-.139-.146-.279,0-.14-.005-.28.018-.14.017-.281.006-.14.005-.28.116-.141.116-.28,0-.14,0-.279.007-.141.006-.281-.027-.141-.028-.281,0-.141,0-.282-.111-.141-.112-.281c0-.082.113-.145.151-.211a.4.4,0,0,1,.15-.159C1372.117,453.385,1372.179,453.254,1372.261,453.253Z" transform="translate(-1358.805 -452.992)"/><path class="a" d="M1438.586,463.929c-.007-.133.047-.136.04-.268s.022-.134.015-.267-.072-.129-.079-.261.04-.135.032-.267.013-.134.006-.267.029-.135.022-.268-.11-.128-.117-.261-.013-.133-.02-.266a.449.449,0,0,0-.156-.342.254.254,0,0,0-.281,0c-.076.038-.188.009-.272.045s-.16.166-.245.2-.156.086-.241.114-.166.061-.252.087-.187-.012-.272.01-.164.079-.25.1-.167.078-.253.094-.19-.046-.276-.033-.168.13-.252.138-.189-.108-.271-.106a1.941,1.941,0,0,1-.256,0c-.094-.012-.2.038-.288.018s-.164-.115-.252-.143-.227.067-.313.031-.17-.1-.252-.142-.137-.143-.215-.2-.165-.095-.238-.154-.143-.125-.21-.191-.073-.186-.133-.258-.221-.068-.275-.145-.106-.162-.153-.244-.051-.189-.09-.275-.062-.179-.094-.268-.079-.173-.1-.265.042-.2.025-.294-.036-.18-.045-.274-.068-.186-.072-.28,0-.191.005-.286.082-.184.09-.279,0-.187.016-.281-.065-.2-.045-.3.155-.156.181-.248-.021-.2.01-.293.03-.193.067-.281.144-.144.185-.229.119-.148.165-.232.075-.172.126-.253-.01-.234.045-.313.159-.128.221-.2a2.6,2.6,0,0,1,.172-.241c.072-.063.191-.075.269-.128a2.533,2.533,0,0,1,.268-.107c.084-.044.137-.159.226-.194s.21.028.3,0,.172-.09.266-.108.186-.041.281-.051.19-.022.286-.024.189.046.284.051.183-.009.274,0,.193-.05.284-.035.168.1.258.12.164.091.252.116.2-.028.287,0,.143.14.228.174.2,0,.282.041.156.114.236.158a.28.28,0,0,0,.2.058c.081-.013.177.039.23-.021s.041-.254.042-.343c0-.13.1-.129.1-.259s.035-.129.037-.259-.072-.132-.069-.261.005-.13.008-.26.057-.129.06-.26.008-.131.01-.261-.066-.132-.063-.263.057-.13.06-.261-.138-.183-.242-.247c-.077-.048-.14-.115-.22-.158s-.132-.141-.214-.18-.194-.007-.279-.042-.137-.148-.224-.179-.159-.109-.246-.135-.179-.048-.268-.07-.185-.021-.275-.039-.179-.051-.269-.065-.192.047-.282.038-.182,0-.273-.01-.182.026-.273.024-.182-.077-.273-.075-.187-.044-.278-.038-.178.083-.268.093-.187-.008-.276.006-.161.13-.25.149-.189-.013-.277.01-.2-.013-.282.014-.183.041-.268.073-.123.183-.206.22-.172.068-.253.109-.2.017-.281.062-.112.177-.189.225-.225,0-.3.048-.077.212-.149.267-.195.053-.265.112-.117.148-.183.211-.151.111-.215.177-.071.184-.131.253-.153.111-.209.184-.167.109-.219.184-.107.154-.155.232.014.222-.031.3-.177.115-.218.2,0,.2-.041.286-.1.156-.136.241-.057.175-.087.262-.067.172-.095.259-.074.171-.1.259.024.2,0,.285-.141.156-.161.246.052.2.033.289-.093.169-.11.258-.1.173-.111.267-.012.188-.019.283.032.189.029.283-.056.186-.057.28.056.188.058.281.08.184.085.277-.017.189-.01.282-.021.191-.012.284.06.183.07.274-.022.194-.01.284.088.179.1.267-.13.215-.115.3.17.144.2.24-.007.19.026.282.124.146.161.234.066.169.107.255.077.166.12.25.077.167.122.249.065.177.113.256.146.127.2.2.029.206.083.281.181.1.238.169.133.128.194.195.107.153.172.213.161.093.233.152.124.138.2.193.122.148.2.2.2.032.277.078.087.234.171.275.207,0,.293.038.143.148.231.181.212-.041.3-.013.163.1.254.128.191,0,.282.021.176.072.268.087.179.077.272.088.192-.037.285-.031.188-.057.281-.056.187.112.281.109.182-.106.276-.113.2.1.29.086.169-.146.261-.161.209.106.3.088.184-.05.275-.072.152-.158.243-.184.2,0,.285-.026.168-.086.256-.119.181-.05.267-.087.2-.011.287-.051.125-.171.207-.214.2-.029.279-.076C1438.6,464.209,1438.593,464.057,1438.586,463.929Z" transform="translate(-1406.998 -452.049)"/><path class="a" d="M1500.866,453.277c.135,0,.135-.1.27-.1s.135.091.27.091.135-.115.271-.115.135.07.27.07.135-.028.27-.028.135-.046.27-.046.135.068.271.068.136-.083.271-.083.136.109.272.109.136-.061.272-.061c.1,0,.115.117.115.213,0,.136.038.136.038.272s.079.137.079.273-.122.137-.122.274.1.137.1.273-.064.136-.064.273.081.137.081.273-.049.137-.049.275-.042.137-.042.274.092.137.092.274-.117.137-.117.275.037.137.037.274.062.137.062.274-.048.137-.048.274.065.138.065.275-.127.138-.127.276.094.138.094.276.043.138.043.276c0,.1.012.131.109.131.132,0,.132.024.265.024s.133-.024.266-.024.132.122.265.122.133.008.265.008.133-.106.266-.106.133.031.266.031.133-.025.265-.025.133-.03.265-.03.133.083.266.083.133.007.267.007.134-.109.267-.109.134.143.268.143a.33.33,0,0,0,.243-.251c0-.141-.077-.143-.074-.284s-.039-.142-.037-.284.02-.141.022-.282.1-.139.1-.28,0-.141,0-.282-.114-.144-.112-.286.1-.14.1-.281-.02-.142-.018-.283-.039-.143-.037-.285.078-.141.08-.282-.06-.143-.058-.284-.01-.141-.008-.283.06-.141.062-.283-.1-.144-.1-.287.118-.141.12-.284-.036-.143-.033-.286c0-.1.086-.137.15-.2s.108-.151.2-.15c.142,0,.142,0,.285,0s.143-.072.286-.07.143.041.286.043.142.055.285.057.143.008.285.01.143-.019.285-.017.143.016.286.018.143.008.287.01.145-.093.289-.091.142.1.286.1c.1,0,.1.062.094.159,0,.136-.01.136-.012.272s.122.139.119.276-.038.136-.041.272-.032.136-.035.273-.052.136-.055.273.066.138.063.275.087.139.084.275-.083.135-.086.271,0,.136-.006.273-.073.135-.076.271.135.139.132.276-.038.136-.041.272.006.137,0,.273-.033.136-.037.273-.087.135-.091.272.076.139.073.276-.084.135-.087.272,0,.137,0,.273,0,.137,0,.274.094.139.091.276-.086.135-.089.272.075.139.072.276-.087.135-.09.272.109.139.106.276-.107.135-.11.272,0,.137,0,.274.034.138.031.275.056.138.053.274-.071.135-.074.272.045.138.042.276-.028.136-.031.273-.088.135-.091.271,0,.137,0,.274.044.139.041.276-.054.136-.057.273.1.139.094.277-.016.137-.019.275.046.139.043.276-.052.136-.055.273,0,.137,0,.274-.11.135-.113.273.008.138,0,.276.144.142.141.28,0,.139,0,.277a.51.51,0,0,1-.133.292c-.063.062-.2.02-.3.02-.136,0-.136.053-.272.053s-.136-.054-.273-.054-.136.1-.273.1-.136-.11-.272-.11-.136-.035-.272-.035-.137.078-.273.078-.137.059-.274.059-.137-.137-.275-.137-.137.067-.275.067c-.094,0-.134-.066-.137-.161,0-.138-.112-.135-.117-.273s-.008-.138-.012-.277,0-.139-.005-.278.024-.139.02-.278.083-.141.079-.279-.136-.135-.14-.273.094-.142.09-.281.045-.14.041-.279-.04-.138-.045-.277-.1-.137-.1-.276.021-.14.017-.279-.006-.139-.011-.278,0-.139-.007-.277.122-.143.117-.283-.049-.138-.053-.278.03-.141.026-.281-.083-.138-.087-.278c0-.093-.075-.1-.168-.1-.136,0-.134-.122-.27-.124s-.136-.031-.273-.033-.137.026-.273.024-.137.036-.274.034-.137.009-.274.007-.136-.046-.273-.047-.138.081-.274.079-.136-.041-.272-.043-.136-.081-.273-.083-.139.149-.277.147-.136-.1-.274-.107-.137-.051-.275-.053a.332.332,0,0,0-.245.255c0,.139.142.142.14.281s-.107.138-.109.278.015.141.013.281.064.141.062.281-.08.138-.083.278-.014.14-.016.279-.051.14-.054.28.13.142.128.283-.033.14-.036.28-.038.14-.04.281.088.142.086.282-.148.138-.151.278.152.143.15.283-.014.141-.016.281-.092.14-.095.28.026.142.023.283-.094.14-.1.281c0,.1,0,.213-.1.213-.144,0-.144-.109-.288-.109s-.144.017-.289.017-.145.1-.289.1-.144-.11-.288-.11-.144.112-.288.112-.145-.121-.289-.121-.145.067-.289.067-.146,0-.291,0-.145,0-.29,0a.188.188,0,0,1-.193-.171c0-.138.048-.138.048-.276s-.034-.138-.034-.277.045-.139.045-.277-.116-.139-.116-.278.1-.139.1-.278.055-.139.055-.277-.152-.138-.152-.277.131-.138.131-.277,0-.138,0-.277-.014-.138-.014-.277-.054-.138-.054-.277-.047-.138-.047-.277.042-.139.042-.277.009-.139.009-.278.054-.139.054-.278-.078-.139-.078-.278-.052-.139-.052-.277.063-.138.063-.277-.065-.138-.065-.277.115-.139.115-.277-.014-.139-.014-.278-.082-.139-.082-.278.107-.139.107-.278,0-.139,0-.278.01-.139.01-.278-.036-.139-.036-.278-.091-.139-.091-.278.1-.138.1-.276.052-.139.052-.278-.137-.139-.137-.278-.012-.139-.012-.277.127-.139.127-.277-.055-.139-.055-.278,0-.139,0-.279-.08-.139-.08-.278.015-.139.015-.278.018-.14.018-.279.125-.139.125-.279-.05-.139-.05-.278-.051-.139-.051-.278-.01-.14-.01-.279,0-.14,0-.28,0-.14,0-.281-.049-.14-.049-.281C1500.609,453.3,1500.769,453.277,1500.866,453.277Z" transform="translate(-1466.258 -452.934)"/><path class="a" d="M1605.612,455.812a2.575,2.575,0,0,0-.035-.272,2.487,2.487,0,0,0-.093-.258,2.68,2.68,0,0,0-.035-.273c-.031-.086-.163-.125-.2-.206s-.027-.186-.073-.263-.081-.162-.134-.235-.065-.182-.123-.251-.179-.083-.242-.147-.086-.173-.153-.233-.119-.146-.189-.2-.157-.1-.23-.152-.166-.085-.24-.133-.136-.134-.212-.178-.157-.1-.233-.144-.226.038-.3,0-.163-.064-.254-.1-.156-.1-.247-.126-.168-.081-.26-.1-.194.05-.287.035-.169-.105-.262-.116-.178-.084-.272-.091-.185-.006-.278-.01-.187.043-.281.042-.185.045-.279.046-.192-.035-.288-.033-.19.037-.286.041-.2-.084-.291-.079-.19.048-.285.053-.188.063-.283.068-.194-.037-.289-.031-.191,0-.286.005-.189.03-.285.036-.192-.007-.288,0-.187.1-.283.105a.66.66,0,0,0-.252.041c-.082.038-.227.011-.288.075a.867.867,0,0,0-.152.256.85.85,0,0,0-.046.29c0,.137.126.136.127.273s.017.137.018.275-.121.138-.12.276-.035.138-.034.275.02.137.021.274.066.136.067.273-.078.138-.077.274.055.136.056.273-.02.137-.019.274.063.136.064.273.043.137.044.274,0,.137,0,.275-.015.138-.013.275-.079.138-.078.276.08.137.081.274-.108.138-.107.275.093.136.094.274.054.137.055.274-.1.139-.1.276,0,.138,0,.275-.048.138-.046.275.109.137.11.274-.052.138-.051.275.06.137.061.275-.067.138-.066.276.123.136.124.272-.029.138-.028.275.031.138.032.275-.1.138-.1.275.1.136.1.273-.16.139-.159.276.139.137.141.275-.084.138-.083.276.047.137.048.275.068.138.069.276-.124.139-.123.277.115.137.116.275-.02.138-.019.275-.091.139-.09.277.1.138.1.276.015.139.016.278-.032.139-.031.278c0,.1-.015.209.048.272a.424.424,0,0,0,.272.113c.133,0,.133-.1.266-.1s.133.074.266.074.133-.084.265-.084.132.024.265.024.133-.03.266-.03.133.031.266.031.134.133.267.133.134-.15.267-.15c.095,0,.218.068.281.006s.045-.186.047-.281c0-.139.069-.138.072-.277s-.033-.14-.03-.278.054-.138.057-.276-.1-.141-.1-.28.005-.14.008-.279.038-.139.041-.278-.078-.141-.075-.28.026-.139.029-.279.005-.139.008-.279.1-.137.1-.277-.035-.14-.032-.279.034-.139.037-.279-.013-.14-.01-.28-.013-.141-.01-.281.057-.139.06-.28c0-.093.029-.19.122-.192s.191.1.285.094.185-.122.279-.125.189.013.283.009.192.039.286.033.186-.047.279-.057.191,0,.284-.009.176-.091.268-.108.211.078.3.056.178-.08.268-.107.166-.1.254-.135.17-.081.255-.121.2-.021.285-.067.1-.2.175-.254.145-.109.22-.169.156-.1.226-.162.225-.035.291-.1.112-.156.173-.227.147-.127.2-.2.045-.2.094-.278.083-.165.124-.251.1-.159.131-.248.084-.167.112-.259-.034-.2-.012-.292.047-.175.062-.27.121-.169.132-.265-.025-.189-.018-.285-.053-.186-.05-.282.094-.183.094-.28S1605.615,455.908,1605.612,455.812Zm-3.982,2.376c-.08.025-.156.058-.238.076s-.157.075-.24.088-.172-.024-.256-.016-.161.12-.245.124-.172-.054-.256-.053a.2.2,0,0,1-.182-.2c0-.133.061-.132.063-.264s-.077-.135-.074-.268.066-.132.068-.265.035-.132.037-.265-.015-.134-.012-.267-.023-.134-.021-.267.043-.133.046-.266.016-.133.018-.266-.134-.136-.131-.27,0-.134,0-.268.05-.133.052-.268.04-.133.042-.268c0-.091.046-.227.137-.232.112-.007.222.066.323.061s.211.056.316.056.2,0,.31.008a1.59,1.59,0,0,1,.278,0,1.9,1.9,0,0,1,.282.043,2,2,0,0,1,.236.159,1.7,1.7,0,0,1,.248.137c.071.059.069.185.13.26a1.334,1.334,0,0,1,.183.2c.043.08.128.143.158.237a1.934,1.934,0,0,1,.016.284,1.962,1.962,0,0,1,.008.278,2.278,2.278,0,0,1,0,.259,1.7,1.7,0,0,1-.066.25c-.023.088.032.2,0,.276a1.576,1.576,0,0,1-.147.224c-.05.075-.186.071-.245.132a1.529,1.529,0,0,1-.178.174,1.821,1.821,0,0,1-.206.144c-.078.044-.1.193-.179.226S1601.708,458.163,1601.63,458.187Z" transform="translate(-1546.713 -452.313)"/><path class="a" d="M1804.576,465.471c.133-.006.135.042.267.037s.136.063.269.058.127-.14.26-.145.138.114.27.108.129-.084.262-.09.137.083.27.077.129-.1.263-.107.135.03.269.024.131-.076.265-.081a.24.24,0,0,0,.187-.08c.061-.058.191-.086.2-.169s-.111-.132-.163-.206c-.079-.115-.05-.135-.129-.25s-.055-.132-.134-.247-.066-.124-.145-.24-.1-.1-.175-.22-.113-.093-.192-.208-.112-.093-.191-.208-.057-.13-.136-.245-.072-.119-.151-.234-.049-.135-.128-.25-.073-.119-.152-.234-.03-.149-.109-.264-.074-.119-.153-.235-.107-.1-.187-.213-.045-.139-.125-.254-.139-.074-.218-.19-.145-.07-.224-.186,0-.173-.077-.289-.034-.148-.113-.263-.146-.07-.226-.186-.09-.109-.169-.226-.126-.084-.206-.2-.036-.146-.115-.262-.082-.114-.162-.23-.126-.084-.206-.2.025-.189-.055-.305-.082-.115-.163-.232-.132-.081-.212-.2a.263.263,0,0,1-.023-.253c.083-.112.136-.072.22-.184s.035-.147.118-.259.143-.067.226-.178.049-.137.132-.248.071-.121.154-.232.14-.07.223-.181.112-.091.2-.2.018-.161.1-.274.027-.154.111-.266.168-.049.251-.161.129-.079.212-.191.018-.162.1-.274.1-.1.179-.216.134-.075.218-.188.07-.123.155-.236.064-.127.149-.24.069-.124.153-.236.129-.079.212-.191-.038-.2.047-.317.177-.044.261-.157.122-.085.207-.2.037-.149.122-.262c.056-.075.006-.167,0-.248a.276.276,0,0,0-.083-.2c-.058-.056-.11-.13-.2-.133-.149-.005-.15.035-.3.03s-.151.048-.3.042-.144-.112-.293-.118-.152.084-.3.078-.148-.05-.3-.055-.151.044-.3.038-.148-.046-.3-.052c-.111,0-.24-.008-.31.079-.088.109-.086.111-.175.221s-.078.118-.167.228-.114.09-.2.2-.112.092-.2.2-.049.142-.138.252-.02.165-.109.275-.2.016-.294.126.041.216-.049.326-.212.011-.3.121.033.209-.056.32-.149.063-.238.174-.082.116-.172.227-.144.066-.233.177.011.191-.078.3-.1.1-.193.211-.178.039-.268.151-.045.148-.135.259-.046.147-.136.258a.27.27,0,0,1-.255.057.227.227,0,0,1-.114-.208c0-.136,0-.136.007-.271s-.067-.138-.063-.274.1-.134.1-.27-.093-.138-.089-.274.1-.134.1-.271-.09-.138-.086-.275.105-.134.109-.27-.054-.137-.051-.273.111-.134.115-.271-.034-.138-.03-.275-.118-.14-.115-.277,0-.137.007-.274a.57.57,0,0,0-.025-.249c-.035-.088-.01-.206-.076-.273s-.19-.029-.278-.066-.144-.1-.241-.1c-.147,0-.147-.059-.293-.059s-.146.025-.293.025-.146.036-.293.036-.147-.107-.294-.107-.147.138-.295.138-.148-.029-.3-.029-.148-.029-.3-.029c-.1,0-.141.079-.2.143s-.14.108-.138.207c0,.139-.015.139-.013.278s.023.139.025.278-.1.141-.1.28.133.138.135.277-.022.139-.021.279.01.139.012.278-.112.14-.111.279.114.137.115.276-.007.139-.005.278.067.138.069.277-.136.141-.134.28.009.139.01.278.089.138.091.278-.058.14-.057.28-.032.14-.031.279,0,.139,0,.278-.01.139-.008.278.092.138.094.277.024.139.026.278.037.139.039.279-.1.141-.1.281.031.139.033.278.042.139.043.278-.017.139-.015.279-.048.14-.046.28,0,.14,0,.279.025.138.026.277.046.139.048.278-.044.14-.042.28.037.139.039.278-.042.14-.04.279.029.139.03.278-.026.14-.024.28.006.14.008.279-.053.14-.052.28.063.139.065.279.08.139.082.279.011.14.013.279-.043.14-.042.28-.072.141-.07.281.093.139.095.28-.042.141-.041.282.018.141.02.282a.306.306,0,0,0,.091.231.332.332,0,0,0,.232.118c.141,0,.141.047.283.047s.141.019.282.019.141.005.282.005.142-.019.283-.019.142-.027.284-.027.142-.058.285-.058.142.081.285.081a.426.426,0,0,0,.265-.13c.064-.062.021-.168.023-.264,0-.136.034-.135.037-.271s.093-.134.1-.27-.015-.136-.012-.272-.055-.138-.051-.275.1-.134.105-.27-.123-.139-.12-.276.051-.136.054-.272.006-.136.009-.273-.033-.137-.03-.274.071-.135.074-.271-.108-.14-.1-.276.138-.134.141-.271-.063-.139-.06-.277.016-.137.019-.275c0-.042.031-.065.058-.1.074-.084,0-.152.072-.236s.158-.011.232-.1.233-.139.3-.049c.082.11,0,.172.079.283s.088.105.17.216.134.071.216.182.027.151.109.262.112.089.194.2.032.148.115.26.14.069.222.18.1.094.187.205.118.085.2.2.072.12.154.231.052.134.134.246.068.122.151.233.077.116.16.228.079.114.162.225.052.135.134.246.133.074.215.185.09.107.172.219-.015.184.068.3.149.064.232.177.048.139.131.251C1804.312,465.491,1804.459,465.476,1804.576,465.471Z" transform="translate(-1713.725 -452.635)"/><path class="a" d="M1658.6,452.962c-.14,0-.139.029-.279.033s-.145-.133-.286-.128-.141-.024-.281-.019-.135.156-.276.16-.142-.031-.282-.026-.141-.012-.282-.007-.141-.023-.282-.019-.14.01-.28.015-.143-.049-.283-.044-.138.1-.279.108-.144-.059-.285-.054-.138.1-.28.108a.226.226,0,0,0-.164.049.246.246,0,0,0-.115.138c-.039.131-.094.213-.133.344s-.059.125-.1.255,0,.144-.035.275-.069.122-.108.253.056.16.016.291-.2.083-.238.215-.045.13-.084.261.091.17.052.3l-.079.262c-.039.131-.076.12-.115.251s-.044.129-.084.26.006.144-.034.275-.082.118-.122.249-.036.132-.076.263-.106.111-.146.242-.064.124-.1.256.1.172.058.3-.129.1-.169.235,0,.143-.041.273-.03.134-.069.265-.124.106-.164.237.042.156,0,.287-.131.1-.171.236.057.16.017.292-.011.14-.051.271-.092.115-.132.247-.068.123-.108.255-.022.136-.061.266-.061.124-.1.255.058.161.018.292-.054.127-.094.259-.007.141-.047.272-.146.1-.185.23-.078.12-.118.251.058.161.018.293-.119.108-.159.239.066.163.026.295-.064.125-.1.257-.127.105-.167.237-.052.128-.091.26.079.167.04.3-.094.116-.134.248.026.152-.014.285-.112.111-.152.244-.091.117-.131.25a.465.465,0,0,0,.076.366c.066.085.211.054.331.049.144-.006.147.056.291.05s.146.035.289.029.14-.1.284-.1.144.014.288.008l.288-.012c.145-.006.143-.036.288-.043s.149.095.294.089.144-.028.289-.035a.4.4,0,0,0,.219-.083.4.4,0,0,0,.121-.2c.036-.133.095-.117.131-.25s-.051-.157-.015-.291.025-.136.06-.27.068-.125.1-.258-.054-.157-.018-.29.031-.135.067-.269.174-.1.21-.231-.01-.147.026-.281.009-.141.046-.276a.432.432,0,0,1,.112-.22.437.437,0,0,1,.24-.064l.279,0c.139,0,.14.08.279.079s.14.021.279.02.14,0,.279,0,.139-.024.279-.026.14.005.279,0,.139-.053.278-.054.139-.072.279-.073.141.128.281.127.14,0,.281,0,.14-.11.28-.111c.078,0,.132.092.192.137s.17.068.191.144c.038.133-.075.165-.037.3s.118.11.156.243,0,.145.035.277.069.124.107.257.06.126.1.259.043.231.081.364-.031.153.007.287.039.133.078.267.026.137.065.271c.021.075.146.088.206.133s.107.189.186.188H1660c.133,0,.132-.124.265-.125s.133.093.265.092.133.025.265.024.131-.119.263-.12.134.106.266.1.133-.056.266-.057.134.031.267.03.133-.079.266-.08c.116,0,.159-.068.221-.152s.193-.168.16-.28c-.04-.133-.128-.106-.168-.24s-.081-.121-.12-.254.072-.266.032-.4-.111-.112-.151-.246,0-.145-.041-.279-.106-.113-.146-.247-.009-.142-.048-.276,0-.146-.037-.279-.009-.142-.048-.276-.14-.1-.18-.236-.026-.137-.065-.27.091-.172.052-.306-.11-.112-.15-.246.007-.148-.032-.281-.114-.112-.154-.246-.08-.121-.12-.255-.052-.13-.093-.263.048-.159.008-.293-.023-.138-.063-.271-.156-.1-.2-.233-.022-.139-.062-.273-.007-.143-.047-.277,0-.145-.042-.279-.086-.12-.126-.253.036-.156,0-.29-.157-.1-.2-.233.1-.173.057-.306-.07-.124-.11-.257-.137-.1-.177-.238.029-.155-.01-.289-.116-.111-.156-.244,0-.144-.044-.278.044-.159,0-.292-.024-.139-.064-.273-.014-.142-.054-.276-.111-.113-.151-.247-.047-.132-.087-.267-.034-.136-.074-.27-.022-.14-.062-.274-.037-.135-.077-.269-.025-.139-.065-.274-.168-.1-.209-.231.01-.15-.03-.285-.075-.224-.116-.359c-.023-.076.013-.181-.049-.225S1658.678,452.959,1658.6,452.962Zm-2.9,6.977c.037-.136.013-.142.051-.277s.17-.1.208-.236.064-.128.1-.264-.109-.176-.072-.312.072-.127.109-.263.053-.132.09-.268.064-.129.1-.264.032-.137.069-.273.089-.122.126-.259-.058-.163-.021-.3.1-.12.136-.257-.057-.163-.02-.3a.321.321,0,0,1,.241-.175.292.292,0,0,1,.217.181c.037.134-.017.149.02.283s.017.14.055.274.081.122.119.256.008.142.045.276.134.108.171.242-.123.179-.085.313.032.136.07.27.168.1.206.231l.075.269c.038.135,0,.145.038.28s.032.137.07.272.083.123.121.258a.418.418,0,0,1-.1.322.371.371,0,0,1-.28.149c-.145,0-.147-.066-.292-.062s-.146-.021-.292-.017-.142.147-.288.151-.149-.089-.3-.085-.145.044-.291.048a.372.372,0,0,1-.3-.13A.425.425,0,0,1,1655.7,459.939Z" transform="translate(-1591.891 -452.715)"/></g></svg>